<svg xmlns="http://www.w3.org/2000/svg" viewBox="0 0 160.81 34.85"><path d="M9.52,21.89,7,34.36H0L6.77,2h21L26.68,8.23H12.41L11,15.68H22.25l-1.5,6.21Z" fill="#fff"></path><path d="M19.78,34.36,34.86,2h7.49L46,34.36H39l-.44-5.28H28.94l-2.26,5.28ZM31.46,23.22H38L37,10.45Z" fill="#fff"></path><path d="M66.39,11.93l.19-1a1.22,1.22,0,0,0,0-.37v-.32A2.58,2.58,0,0,0,65.57,8a4.77,4.77,0,0,0-2.93-.79,4.08,4.08,0,0,0-2.91,1,3.27,3.27,0,0,0-1,2.47,3,3,0,0,0,.47,1.65,3.84,3.84,0,0,0,1.89,1.35l3.8,1.58c.89.36,1.75.77,2.59,1.21a9.82,9.82,0,0,1,2.24,1.63,7.29,7.29,0,0,1,2.22,5.49,12.14,12.14,0,0,1-.82,4.54A9.65,9.65,0,0,1,68.7,31.7,11.26,11.26,0,0,1,64.83,34a15,15,0,0,1-5.2.84,15.76,15.76,0,0,1-4.29-.57,11.6,11.6,0,0,1-3.52-1.6,7.71,7.71,0,0,1-2.36-2.54,6.58,6.58,0,0,1-.87-3.37,9.78,9.78,0,0,1,.15-1.63l.2-1.18h6.85l-.25,1.43c0,.16-.06.3-.07.41a2.22,2.22,0,0,0,0,.37,2.39,2.39,0,0,0,1.19,2.17,6.26,6.26,0,0,0,3.35.74,5,5,0,0,0,3.55-1.15,4,4,0,0,0,1.23-3,2.93,2.93,0,0,0-.52-1.82,4.22,4.22,0,0,0-1.8-1.23l-4.68-1.92a10.14,10.14,0,0,1-4.48-3.21,7.78,7.78,0,0,1-1.53-4.83,11.11,11.11,0,0,1,.71-4,9.23,9.23,0,0,1,2.15-3.32,10.13,10.13,0,0,1,3.57-2.27,13.68,13.68,0,0,1,5-.84,14.46,14.46,0,0,1,4,.54A10.41,10.41,0,0,1,70.5,3.6a7.7,7.7,0,0,1,2.22,2.51,6.9,6.9,0,0,1,.81,3.36,10.26,10.26,0,0,1-.15,1.72l-.14.74Z" fill="#fff"></path><path d="M98.62,23l-.29,1.38a14.05,14.05,0,0,1-4.14,7.69,11.9,11.9,0,0,1-8.28,2.76,14.33,14.33,0,0,1-4.19-.59,9.8,9.8,0,0,1-3.33-1.75A8,8,0,0,1,76.2,29.7a8.59,8.59,0,0,1-.79-3.77,9.23,9.23,0,0,1,.2-2l2-11.49A17.92,17.92,0,0,1,79,7.89a10.83,10.83,0,0,1,2.46-3.45,10.48,10.48,0,0,1,3.67-2.2,15.35,15.35,0,0,1,5.06-.76,13.26,13.26,0,0,1,4.11.62,9.86,9.86,0,0,1,3.3,1.77,8.09,8.09,0,0,1,2.2,2.84,8.72,8.72,0,0,1,.79,3.74,13.68,13.68,0,0,1-.15,2l-.15.84H93.55l.15-.74c0-.16,0-.35.07-.56s0-.41,0-.57A3.42,3.42,0,0,0,92.71,8.7a4.3,4.3,0,0,0-3-1,4.76,4.76,0,0,0-3.4,1.31,6.14,6.14,0,0,0-1.77,3.52l-2,11.19a2.5,2.5,0,0,0-.09.62v.51a3.5,3.5,0,0,0,1.06,2.71,4.19,4.19,0,0,0,3,1,4.75,4.75,0,0,0,3.52-1.26,6.27,6.27,0,0,0,1.65-3.42l.15-.89Z" fill="#fff"></path><path d="M138.14,15.58l-3.3,18.78h-6.46L134.1,2h5.76L145,15.13,154.65,2h6.16l-5.72,32.39h-6.75l3.25-18.59-6.06,8h-4Z" fill="#fff"></path><path d="M117.39,22l-.29,1.8a3.69,3.69,0,0,1-7.3-1.14L110,22H102.2l-.25.94a12.66,12.66,0,0,0-.26,2.68,2.26,2.26,0,0,1,.58-.09,2,2,0,0,1,2,2,2,2,0,0,1,0,.42,2.09,2.09,0,0,1-.38.82,4.68,4.68,0,0,1-1.12,1,8.56,8.56,0,0,0,3.87,3.69,2,2,0,0,1,3.88.51,2.13,2.13,0,0,1-.09.58,14.29,14.29,0,0,0,1.5.11H114a10.5,10.5,0,0,0,2-.19,2.25,2.25,0,0,1-.08-.52,2,2,0,0,1,3.75-.87,11.23,11.23,0,0,0,3.8-3.8,2,2,0,0,1,.93-3.72,1.76,1.76,0,0,1,.46.06l0-.19.64-3.44Z" fill="#fff"></path><path d="M126.56,15.43l-10.29,0s4-.71,6.88-1.4a35.78,35.78,0,0,0,3.77-1.14c.51-4.4-.86-8-4.13-9.95-.4.67-1,1.68-1.51,2.79-1.13,2.36-2.09,5-2.27,5.51l-.14.46A47.22,47.22,0,0,1,119.54,6c.31-1.89.6-3.29.79-4.14h0l.44-1.9h-7A46.71,46.71,0,0,0,112,6.59v0c-.07-.2-.59-1.61-.86-2.71-.14-.61-.24-1.09-.3-1.46a11.7,11.7,0,0,0-6.37,8.21l-1.11,4.86-1.51,1-.36,1.88h26.45l.36-1.55Z" fill="#ffd600"></path></svg>